<?xml version="1.0" encoding="UTF-8"?>
<svg width="210mm" height="212mm" version="1.1" viewBox="0 0 210 212" xmlns="http://www.w3.org/2000/svg">
	<g fill="#212529">
		<path d="m203.43 158.77-86.161-147.7c-2.2056-3.7803-6.2536-6.1063-10.632-6.1063-4.3784 0-8.4261 2.326-10.632 6.1063l-86.161 147.7c-2.2206 3.8072-2.2359 8.5103-0.04193 12.333 2.1967 3.8226 6.2655 6.1786 10.674 6.1786h172.32c4.4084 0 8.4772-2.356 10.674-6.1786 2.1936-3.8226 2.1786-8.5257-0.0423-12.333zm-96.793-6.1074c-6.7913 0-12.309-5.5112-12.309-12.309s5.5174-12.309 12.309-12.309c6.8036 0 12.309 5.5112 12.309 12.309 0 6.7971-5.505 12.309-12.309 12.309zm12.309-49.234c0 6.7975-5.5112 12.309-12.309 12.309-6.7975 0-12.309-5.5112-12.309-12.309v-36.926c0-6.7975 5.5112-12.309 12.309-12.309 6.7974 0 12.309 5.5112 12.309 12.309z" stroke-width=".38464"/>
		<g transform="matrix(1.398 0 0 1.398 -38.681 -24.098)" stroke-width=".26458" aria-label="INTERNET_ERR">
			<path d="m46.197 162.53v-12.088h1.9761v12.088z"/>
			<path d="m61.435 162.53h-2.4226l-5.9448-9.6325h-0.06614l0.04134 0.53743q0.11576 1.5379 0.11576 2.8112v6.2838h-1.7942v-12.088h2.3978l5.9283 9.5829h0.04961q-0.01654-0.19017-0.06614-1.3808-0.04961-1.1989-0.04961-1.8686v-6.3334h1.8107z"/>
			<path d="m68.802 162.53h-1.9761v-10.393h-3.5553v-1.695h9.0868v1.695h-3.5553z"/>
			<path d="m81.047 162.53h-6.8378v-12.088h6.8378v1.6702h-4.8617v3.2908h4.5558v1.6536h-4.5558v3.7951h4.8617z"/>
			<path d="m85.636 156.06h1.3725q1.3808 0 2.0009-0.51263t0.62012-1.5214q0-1.0253-0.66972-1.4717t-2.0174-0.44648h-1.3064zm0 1.6371v4.8286h-1.9761v-12.088h3.4148q2.3399 0 3.4644 0.87643t1.1245 2.6458q0 2.2572-2.3482 3.2163l3.4148 5.3495h-2.249l-2.8939-4.8286z"/>
			<path d="m104.55 162.53h-2.4226l-5.9448-9.6325h-0.06615l0.04134 0.53743q0.11576 1.5379 0.11576 2.8112v6.2838h-1.7942v-12.088h2.3978l5.9283 9.5829h0.0496q-0.0165-0.19017-0.0662-1.3808-0.0496-1.1989-0.0496-1.8686v-6.3334h1.8107z"/>
			<path d="m114.58 162.53h-6.8378v-12.088h6.8378v1.6702h-4.8617v3.2908h4.5558v1.6536h-4.5558v3.7951h4.8617z"/>
			<path d="m121.37 162.53h-1.9761v-10.393h-3.5553v-1.695h9.0868v1.695h-3.5553z"/>
			<path d="m132.48 165.17h-7.3339v-1.1162h7.3339z"/>
			<path d="m140.88 162.53h-6.8378v-12.088h6.8378v1.6702h-4.8617v3.2908h4.5558v1.6536h-4.5558v3.7951h4.8617z"/>
			<path d="m145.47 156.06h1.3725q1.3808 0 2.0009-0.51263 0.62012-0.51263 0.62012-1.5214 0-1.0253-0.66973-1.4717-0.66972-0.44648-2.0174-0.44648h-1.3064zm0 1.6371v4.8286h-1.9761v-12.088h3.4148q2.3399 0 3.4644 0.87643t1.1245 2.6458q0 2.2572-2.3482 3.2163l3.4148 5.3495h-2.249l-2.8939-4.8286z"/>
			<path d="m156.3 156.06h1.3725q1.3808 0 2.0009-0.51263 0.62012-0.51263 0.62012-1.5214 0-1.0253-0.66973-1.4717-0.66972-0.44648-2.0174-0.44648h-1.3064zm0 1.6371v4.8286h-1.9761v-12.088h3.4148q2.3399 0 3.4644 0.87643t1.1245 2.6458q0 2.2572-2.3482 3.2163l3.4148 5.3495h-2.249l-2.8939-4.8286z"/>
		</g>
	</g>
</svg>
